# xmcd
#
# Track frame offsets:
#	150
#	16941
#	29380
#	58939
#	75659
#
# Disc length: 1191 seconds
#
# Revision: 1
# Processed by: cddbd v1.5.2PL0 Copyright (c) Steve Scherf et al.
# Submitted via: audiograbber 1.83.01
#
DISCID=3504a505
DTITLE=Liam Finn and Eliza Jane - Champagne In Seashells
DYEAR=2009
DGENRE=Pop
TTITLE0=Plane Crash
TTITLE1=Long Way To Go
TTITLE2=Won't Change My Mind
TTITLE3=Honest Face
TTITLE4=On Your Side
EXTD=
EXTT0=
EXTT1=
EXTT2=
EXTT3=
EXTT4=
PLAYORDER=
